<?xml version="1.0" encoding="utf-8"?>
<!-- Generator: Adobe Illustrator 26.2.1, SVG Export Plug-In . SVG Version: 6.00 Build 0)  -->
<svg version="1.1" id="Layer_1" xmlns="http://www.w3.org/2000/svg" xmlns:xlink="http://www.w3.org/1999/xlink" x="0px" y="0px"
	 viewBox="0 0 795.91 279.07" style="enable-background:new 0 0 795.91 279.07;" xml:space="preserve">
<style type="text/css">
	.st0{fill:#1D252C;}
	.st1{fill:#6CCA98;}
</style>
<g>
	<g>
		<path class="st0" d="M778.37,57.21c-0.38-0.34-0.96-0.67-1.77-0.97c1.95-0.46,3.37-1.2,4.28-2.23c0.9-1.02,1.36-2.24,1.36-3.64
			c0-1.79-0.59-3.22-1.78-4.29c-1.19-1.07-3.1-1.6-5.75-1.6h-9.35v20.89h5.2v-8.22c0.27-0.05,0.49-0.08,0.64-0.08
			c0.68,0,1.37,0.39,2.05,1.16c0.68,0.78,2.02,3.15,4.02,7.13h6.15c-2.22-3.96-3.35-5.97-3.38-6.04
			C779.45,58.4,778.9,57.69,778.37,57.21z M775.99,52.61c-0.61,0.49-1.67,0.73-3.17,0.73h-2.25v-5.22h2.46
			c1.42,0,2.42,0.24,3.01,0.73c0.59,0.49,0.88,1.11,0.88,1.88C776.91,51.5,776.6,52.13,775.99,52.61z"/>
		<path class="st0" d="M791.16,45.16c-1.75-3.03-4.14-5.42-7.16-7.16c-3.02-1.74-6.28-2.61-9.78-2.61c-3.48,0-6.73,0.87-9.76,2.61
			c-3.02,1.74-5.41,4.13-7.16,7.16c-1.75,3.03-2.62,6.29-2.62,9.77c0,3.5,0.87,6.76,2.62,9.78c1.75,3.02,4.14,5.4,7.16,7.14
			c3.02,1.74,6.27,2.61,9.76,2.61c3.5,0,6.76-0.87,9.78-2.61c3.02-1.74,5.41-4.12,7.16-7.14c1.75-3.02,2.62-6.28,2.62-9.78
			C793.78,51.45,792.91,48.19,791.16,45.16z M785.37,66.08c-3.08,3.08-6.8,4.62-11.15,4.62c-4.35,0-8.07-1.54-11.15-4.62
			c-3.08-3.08-4.62-6.8-4.62-11.15c0-4.35,1.54-8.07,4.62-11.15c3.08-3.08,6.8-4.62,11.15-4.62c4.35,0,8.07,1.54,11.15,4.62
			c3.08,3.08,4.62,6.8,4.62,11.15C790,59.29,788.45,63,785.37,66.08z"/>
		<path class="st0" d="M417.33,107.92h-0.16c-2.7,0-5.02,0.97-6.96,2.91c-1.94,1.94-2.91,4.26-2.91,6.96v73.55
			c0,2.75,0.97,5.05,2.91,6.88c1.94,1.94,4.26,2.91,6.96,2.91h0.16c2.75,0,5.05-0.97,6.88-2.91c1.94-1.83,2.91-4.13,2.91-6.88
			v-73.55c0-2.7-0.97-5.02-2.91-6.96C422.38,108.89,420.09,107.92,417.33,107.92z"/>
		<path class="st0" d="M417.25,74.83c-3.13,0-5.8,1.1-8.01,3.32c-2.21,2.21-3.32,4.85-3.32,7.93c0,3.13,1.1,5.8,3.32,8.01
			c2.21,2.21,4.88,3.32,8.01,3.32c3.08,0,5.72-1.1,7.93-3.32c2.26-2.16,3.4-4.83,3.4-8.01c0-3.13-1.14-5.77-3.4-7.93
			C422.97,75.93,420.33,74.83,417.25,74.83z"/>
		<path class="st0" d="M355.84,107.92c-12.84,0-22.49,4.26-28.97,12.78c-6.53-8.52-16.21-12.78-29.04-12.78
			c-10.74,0-19.9,3.8-27.51,11.41c-7.61,7.66-11.41,16.83-11.41,27.51v44.5c0,2.75,0.97,5.05,2.91,6.88
			c1.94,1.94,4.23,2.91,6.88,2.91h0.24c2.64,0,4.94-0.97,6.88-2.91c1.94-1.83,2.91-4.13,2.91-6.88v-44.5
			c0-5.28,1.86-9.79,5.58-13.51c3.72-3.72,8.22-5.58,13.51-5.58c5.28,0,9.79,1.86,13.51,5.58c3.72,3.72,5.58,8.22,5.58,13.51v44.5
			c0,2.75,0.97,5.05,2.91,6.88c1.94,1.94,4.26,2.91,6.96,2.91h0.16c2.75,0,5.05-0.97,6.88-2.91c1.94-1.83,2.91-4.13,2.91-6.88v-44.5
			c0-5.28,1.86-9.79,5.59-13.51c3.72-3.72,8.23-5.58,13.51-5.58c5.34,0,9.87,1.86,13.6,5.58c3.72,3.72,5.58,8.22,5.58,13.51v44.5
			c0,2.75,0.97,5.05,2.91,6.88c1.83,1.94,4.13,2.91,6.88,2.91h0.16c2.7,0,5.01-0.97,6.96-2.91c1.89-1.89,2.83-4.18,2.83-6.88v-44.5
			c0-10.68-3.81-19.85-11.41-27.51C375.74,111.72,366.57,107.92,355.84,107.92z"/>
		<path class="st0" d="M478.91,107.92c-10.79,0-20.01,3.83-27.67,11.49c-7.66,7.66-11.49,16.88-11.49,27.67v44.26
			c0,2.75,0.97,5.05,2.91,6.88c1.94,1.94,4.23,2.91,6.88,2.91h0.24c2.64,0,4.93-0.97,6.88-2.91c1.94-1.83,2.91-4.13,2.91-6.88
			v-44.26c0-5.34,1.86-9.9,5.58-13.67c3.77-3.77,8.36-5.66,13.75-5.66c5.34,0,9.9,1.89,13.68,5.66c3.72,3.77,5.58,8.33,5.58,13.67
			v44.26c0,2.75,0.97,5.05,2.91,6.88c1.94,1.94,4.26,2.91,6.96,2.91h0.16c2.75,0,5.04-0.97,6.88-2.91c1.94-1.83,2.91-4.13,2.91-6.88
			v-44.26c0-10.79-3.83-20.01-11.49-27.67C498.84,111.75,489.65,107.92,478.91,107.92z"/>
		<path class="st0" d="M744.54,74.83c-3.13,0-5.79,1.1-8.01,3.32c-2.21,2.21-3.31,4.85-3.31,7.93c0,3.13,1.1,5.8,3.31,8.01
			c2.22,2.21,4.88,3.32,8.01,3.32c3.08,0,5.72-1.1,7.93-3.32c2.26-2.16,3.4-4.83,3.4-8.01c0-3.13-1.14-5.77-3.4-7.93
			C750.26,75.93,747.62,74.83,744.54,74.83z"/>
		<path class="st0" d="M715.34,74.75h-4.61c-9.87,0-18.28,3.48-25.24,10.44c-6.85,6.9-10.33,15.29-10.44,25.16v80.99
			c0,2.75,0.97,5.05,2.91,6.88c1.94,1.94,4.23,2.91,6.88,2.91h0.24c2.64,0,4.94-0.97,6.88-2.91c1.94-1.83,2.91-4.13,2.91-6.88
			v-63.51h20.47c2.7,0,5.01-0.97,6.95-2.91c1.89-1.94,2.84-4.26,2.84-6.96v-0.16c0-2.7-0.94-4.99-2.84-6.88
			c-1.94-1.94-4.26-2.91-6.95-2.91h-20.47c0.05-2.86,1.59-5.83,4.61-8.9c3.08-3.08,6.82-4.61,11.25-4.61h4.61
			c2.7,0,5.01-0.94,6.95-2.83c1.89-1.94,2.84-4.26,2.84-6.96v-0.16c0-2.7-0.94-5.01-2.84-6.96
			C720.35,75.69,718.03,74.75,715.34,74.75z"/>
		<path class="st0" d="M559.51,107.92h-12.13V84.54c0-2.7-0.97-5.01-2.91-6.96c-1.94-1.89-4.24-2.83-6.88-2.83h-0.24
			c-2.65,0-4.94,0.94-6.88,2.83c-1.94,1.94-2.91,4.26-2.91,6.96v91.19c0,6.96,2.48,12.95,7.44,17.96
			c5.02,4.96,11.03,7.44,18.05,7.44h6.47c2.64,0,4.94-0.97,6.88-2.91c1.94-1.83,2.91-4.13,2.91-6.88v-0.16
			c0-2.7-0.97-5.01-2.91-6.96c-1.94-1.94-4.23-2.91-6.88-2.91h-6.47c-1.62,0-2.97-0.54-4.04-1.62c-1.08-1.08-1.62-2.4-1.62-3.96
			v-47.98h12.13c2.64,0,4.94-0.97,6.88-2.91c1.94-1.84,2.91-4.13,2.91-6.88v-0.16c0-2.7-0.97-5.02-2.91-6.96
			C564.44,108.89,562.15,107.92,559.51,107.92z"/>
		<path class="st0" d="M744.63,107.92h-0.16c-2.7,0-5.02,0.97-6.96,2.91c-1.94,1.94-2.91,4.26-2.91,6.96v73.55
			c0,2.75,0.97,5.05,2.91,6.88c1.94,1.94,4.26,2.91,6.96,2.91h0.16c2.75,0,5.04-0.97,6.88-2.91c1.94-1.83,2.91-4.13,2.91-6.88
			v-73.55c0-2.7-0.97-5.02-2.91-6.96C749.67,108.89,747.38,107.92,744.63,107.92z"/>
		<path class="st0" d="M649.08,107.92h-0.16c-2.7,0-5.02,0.97-6.96,2.91c-1.94,1.94-2.91,4.26-2.91,6.96v42.48
			c0,5.34-1.89,9.9-5.66,13.67c-3.78,3.78-8.31,5.66-13.6,5.66c-5.39,0-9.98-1.89-13.75-5.66c-3.72-3.77-5.58-8.33-5.58-13.67
			v-42.48c0-2.7-0.97-5.02-2.91-6.96c-1.94-1.94-4.24-2.91-6.88-2.91h-0.24c-2.65,0-4.94,0.97-6.88,2.91
			c-1.94,1.94-2.91,4.26-2.91,6.96v42.48c0,10.79,3.83,19.98,11.49,27.59c7.66,7.66,16.88,11.49,27.67,11.49
			c8.58,0,14.99-1.59,19.26-4.77v0.65c0,5.23-1.94,9.79-5.83,13.68c-3.83,3.77-8.31,5.66-13.43,5.66c-4.1,0-7.9-1.03-11.41-3.08
			c-3.45-2-6.04-4.61-7.77-7.85c-1.14-2.16-2.81-3.69-5.02-4.61c-1.13-0.43-2.29-0.65-3.48-0.65c-1.14,0-2.29,0.19-3.48,0.57
			l-0.32,0.16c-2.7,0.92-4.59,2.78-5.66,5.58c-0.54,1.24-0.81,2.48-0.81,3.72c0,1.46,0.37,2.91,1.13,4.37
			c3.34,6.53,8.25,11.73,14.73,15.62c6.63,3.99,14,5.99,22.09,5.99c10.2,0,19.2-3.83,27.02-11.49c8.04-7.77,12.06-16.99,12.06-27.67
			v-77.43c0-2.7-0.97-5.02-2.91-6.96C654.12,108.89,651.83,107.92,649.08,107.92z"/>
	</g>
	<g>
		<path class="st1" d="M111.68,41.02c-24.68,0-48.08,8.37-66.94,23.77c-4.51,3.68-4.95,10.42-0.83,14.54
			c3.55,3.55,9.19,3.8,13.08,0.63c15.41-12.59,34.52-19.44,54.68-19.44c20.17,0,39.28,6.85,54.69,19.45
			c3.88,3.17,9.52,2.92,13.07-0.63l0.01-0.01c4.12-4.12,3.68-10.84-0.83-14.53C159.76,49.39,136.36,41.02,111.68,41.02z"/>
		<path class="st1" d="M29.43,52.17C52.25,32.33,81.13,21.5,111.68,21.5c30.54,0,59.42,10.83,82.25,30.67
			c3.83,3.33,9.61,3.06,13.2-0.53l0,0c4.03-4.03,3.73-10.6-0.58-14.33C180.2,14.47,146.9,2.01,111.68,2.01S43.15,14.47,16.81,37.31
			c-4.3,3.73-4.6,10.3-0.58,14.33C19.82,55.23,25.59,55.5,29.43,52.17z"/>
		<path class="st1" d="M111.68,237.85c-6.81,0-12.81,3.49-16.33,8.77c-41.83-10.27-72.95-48.06-72.95-93.01
			c0-7.73,0.92-15.32,2.69-22.65c9.21-1.6,16.24-9.65,16.24-19.31c0-10.81-8.8-19.6-19.6-19.6s-19.6,8.8-19.6,19.6
			c0,4.78,1.72,9.17,4.58,12.57c-2.48,9.48-3.8,19.33-3.8,29.39c0,55.35,39.22,101.69,91.32,112.75c3.25,6.35,9.85,10.7,17.46,10.7
			c10.81,0,19.6-8.8,19.6-19.6C131.28,246.65,122.49,237.85,111.68,237.85z M21.72,103.5c4.49,0,8.15,3.65,8.15,8.15
			c0,4.49-3.65,8.15-8.15,8.15s-8.15-3.65-8.15-8.15C13.58,107.16,17.23,103.5,21.72,103.5z M111.68,265.61
			c-4.49,0-8.15-3.65-8.15-8.15c0-4.49,3.65-8.15,8.15-8.15c4.49,0,8.15,3.65,8.15,8.15C119.83,261.95,116.17,265.61,111.68,265.61z
			"/>
		<path class="st1" d="M216.81,125.86c3.5-3.54,5.67-8.41,5.67-13.78c0-10.81-8.8-19.6-19.6-19.6c-10.81,0-19.6,8.8-19.6,19.6
			c0,9.51,6.81,17.46,15.81,19.23c0.49,2.43,0.9,4.91,1.19,7.43c3.02,40.53-29.89,75.58-70.4,75.92c-8.16,0.19-16.08-1.06-23.57-3.5
			c-23.2-6.15-42.67-25.23-46.57-49.14c-0.15-0.84-0.24-1.7-0.35-2.55c-0.09-0.5-0.22-0.99-0.28-1.51c0.02,0.02,0.04,0.04,0.09,0.06
			c-0.86-8.22,0.11-16.64,2.72-24.45c2.07-6.26,5.2-12.11,9.28-17.18c4.9-6.13,11.18-11.09,18.67-14.22
			c14.42-6.37,31.12-5.48,44.54,1.21c1.1,0.56,1.55,1.9,0.99,3c-0.5,1.04-1.73,1.49-2.78,1.08c-12.86-5.01-27.58-4.19-39.06,2.24
			c-6.39,3.32-11.37,8.29-14.91,14.14c-3.67,6.06-5.78,13.06-6.28,20.18c-0.54,7.64,0.78,15.43,4.01,22.34
			c4.21,1.36,8.52,2.48,12.91,3.22c3.15,0.52,6.37,0.84,9.58,0.97h0.02c9.56,0.39,19.23-0.95,28.21-4.12
			c8.05-2.83,15.54-7.1,21.95-12.91c8.29-7.27,14.35-16.79,18.09-27.13c1.77-4.9,3-9.95,3.71-15.04c0.24-1.75-0.24-3.6-1.47-5.05
			c-1.3-1.58-2.65-3.09-4.06-4.55c-6.41-6.58-14.05-12-22.49-15.78c-29.8-13.53-63.15-4.14-82.85,19.21
			c-4.06,4.81-7.55,10.23-10.29,16.16c-1.21,2.59-2.27,5.29-3.17,8.07c-9.34,27.97,1.9,57.73,22.16,77.74
			c16.25,15.88,38.78,24.34,61.36,24.26c47.24,0.09,86.97-37.98,88.61-85.29c0.17-5.61-0.02-11.7-1.14-17.31
			C217.29,127.82,217.04,126.85,216.81,125.86z M194.73,112.08c0-4.49,3.65-8.15,8.15-8.15c4.49,0,8.15,3.65,8.15,8.15
			c0,4.49-3.65,8.15-8.15,8.15C198.38,120.23,194.73,116.58,194.73,112.08z"/>
	</g>
</g>
</svg>
